# xmcd
#
# Track frame offsets:
#	150
#	23421
#	39157
#
# Disc length: 1042 seconds
#
# Revision: 0
# Processed by: cddbd v1.5.1PL2 Copyright (c) Steve Scherf et al.
# Submitted via: dBpowerAMP V4.0
#
DISCID=11041003
DTITLE=Sjiengele Boem and Minsekinder - Jubileum-single
DYEAR=2006
DGENRE=Limburgstalig
TTITLE0=Veur d'n dors neet gebaore
TTITLE1=Sjiengele Boem
TTITLE2=Medley
EXTD=
EXTT0=
EXTT1=
EXTT2=
PLAYORDER=
